<?xml version="1.0" standalone="no"?>
<!DOCTYPE svg PUBLIC "-//W3C//DTD SVG 20010904//EN"
 "http://www.w3.org/TR/2001/REC-SVG-20010904/DTD/svg10.dtd">
<svg version="1.0" xmlns="http://www.w3.org/2000/svg"
 width="150.000000pt" height="150.000000pt" viewBox="0 0 150.000000 150.000000"
 preserveAspectRatio="xMidYMid meet">
<metadata>
Created by potrace 1.14, written by Peter Selinger 2001-2017
</metadata>
<g transform="translate(0.000000,150.000000) scale(0.100000,-0.100000)"
fill="#000000" stroke="none">
<path d="M0 750 l0 -750 750 0 750 0 0 750 0 750 -750 0 -750 0 0 -750z m350
610 c11 -11 20 -28 20 -37 0 -9 6 -24 13 -32 7 -9 26 -45 42 -81 34 -75 45
-92 56 -88 5 2 31 49 58 105 27 57 55 113 64 126 l15 24 299 1 c189 1 314 -3
341 -10 51 -13 97 -61 112 -118 16 -59 9 -572 -7 -578 -7 -2 -13 -10 -13 -17
0 -19 -49 -75 -65 -75 -7 0 -15 -6 -18 -12 -3 -10 -57 -13 -222 -14 l-219 -1
-38 26 c-70 48 -80 86 -82 297 0 101 -2 184 -3 184 -2 0 -17 -28 -34 -62 -17
-35 -37 -70 -43 -78 -27 -33 -39 -106 -37 -226 2 -95 -1 -123 -12 -133 -10 -8
-46 -11 -108 -9 l-94 3 -2 149 c-2 125 -5 152 -20 168 -16 18 -16 19 8 25 l24
7 -25 6 c-19 4 -36 26 -72 95 -26 50 -47 98 -48 107 0 10 11 25 25 34 14 9 25
25 25 35 0 10 5 21 10 24 16 10 12 22 -10 28 -17 4 -20 2 -14 -15 6 -20 -29
-68 -50 -68 -9 0 -103 177 -109 205 -2 11 54 19 151 22 51 2 67 -2 82 -17z
m164 -911 c26 -20 26 -22 26 -150 0 -149 -6 -163 -84 -174 -78 -12 -76 -17
-76 175 l0 170 54 0 c39 0 60 -6 80 -21z m186 -3 c0 -21 -5 -25 -37 -28 -38
-3 -38 -3 -37 -48 1 -38 4 -45 23 -48 29 -5 30 -52 1 -52 -20 0 -22 -6 -23
-60 -1 -22 4 -25 36 -28 34 -3 37 -6 37 -33 l0 -30 -67 3 -68 3 -3 173 -2 172
70 0 c68 0 70 -1 70 -24z m170 -1 c0 -22 -4 -25 -40 -25 l-40 0 0 -50 c0 -47
2 -50 25 -50 20 0 25 -5 25 -25 0 -20 -5 -25 -25 -25 -23 0 -25 -4 -25 -45 l0
-45 41 0 c38 0 40 -1 37 -27 -3 -27 -5 -28 -70 -31 l-68 -3 0 176 0 175 70 0
c68 0 70 -1 70 -25z m180 -119 c0 -130 -2 -146 -21 -170 -16 -20 -29 -26 -60
-26 -52 0 -79 27 -79 80 0 38 2 40 30 40 28 0 30 -3 30 -36 0 -28 3 -35 18
-32 15 3 17 19 20 146 l3 142 29 0 30 0 0 -144z m140 132 c0 -7 7 -76 15 -153
20 -194 20 -187 -12 -183 -22 2 -29 9 -33 32 -7 42 -28 44 -32 4 -3 -29 -6
-33 -33 -33 -21 0 -29 5 -28 15 1 8 6 76 13 150 16 190 12 180 65 180 29 0 45
-4 45 -12z m96 -28 c8 -47 24 -43 24 6 0 31 2 34 30 34 17 0 30 -3 30 -8 0 -4
-9 -39 -20 -77 -14 -48 -20 -100 -20 -166 l0 -96 -30 -1 -30 -1 0 92 c0 70 -6
112 -25 172 -14 44 -25 81 -25 83 0 1 13 2 30 2 27 0 30 -4 36 -40z"/>
<path d="M1100 1220 c0 -5 5 -10 10 -10 6 0 10 5 10 10 0 6 -4 10 -10 10 -5 0
-10 -4 -10 -10z"/>
<path d="M317 1202 c-10 -10 -17 -21 -17 -24 0 -11 49 17 55 30 7 18 -20 14
-38 -6z"/>
<path d="M365 1130 c3 -5 8 -10 11 -10 2 0 4 5 4 10 0 6 -5 10 -11 10 -5 0 -7
-4 -4 -10z"/>
<path d="M955 1056 c-20 -27 -24 -38 -16 -57 5 -13 10 -20 10 -15 1 5 8 3 16
-4 14 -12 13 -16 -9 -39 l-25 -26 34 -40 35 -40 20 24 21 24 23 -22 c28 -26
50 -20 71 22 14 29 14 32 -7 54 l-21 23 22 24 c24 26 23 35 -12 74 -25 27 -28
27 -55 2 l-21 -20 -17 25 c-22 34 -38 32 -69 -9z"/>
<path d="M480 859 c0 -5 5 -7 10 -4 6 3 10 8 10 11 0 2 -4 4 -10 4 -5 0 -10
-5 -10 -11z"/>
<path d="M1080 639 c0 -16 27 -46 35 -38 2 2 -5 15 -15 29 -15 19 -20 21 -20
9z"/>
<path d="M447 413 c-3 -4 -4 -57 -2 -118 2 -94 4 -110 19 -113 15 -3 16 8 14
114 -2 78 -7 119 -15 121 -6 2 -13 0 -16 -4z"/>
<path d="M1118 433 c7 -3 16 -2 19 1 4 3 -2 6 -13 5 -11 0 -14 -3 -6 -6z"/>
<path d="M1136 339 c-9 -48 -7 -99 4 -99 6 0 10 28 10 65 0 71 -4 82 -14 34z"/>
</g>
</svg>
